HIERARCHY
ROOT Hips
{
  OFFSET -213.699 104.721 0.752556
  CHANNELS 6 Xposition Yposition Zposition Zrotation Xrotation Yrotation
  JOINT RightUpLeg
  {
    OFFSET -8.9458 -8.66707 0.101652
    CHANNELS 3 Zrotation Xrotation Yrotation
    JOINT RightLeg
    {
      OFFSET 0 -44.4227 1.3727
      CHANNELS 3 Zrotation Xrotation Yrotation
      JOINT RightFoot
      {
        OFFSET 0.253549 -42.0924 -1.46059
        CHANNELS 3 Zrotation Xrotation Yrotation
        JOINT RightToes
        {
          OFFSET 0.04 -4.41509 8.4991
          CHANNELS 3 Zrotation Xrotation Yrotation
          End Site
          {
            OFFSET -0.08 -0.137448 9.77979
          }
        }
      }
    }
  }
  JOINT Spine
  {
    OFFSET 0 11.8905 0
    CHANNELS 3 Zrotation Xrotation Yrotation
    JOINT Spine1
    {
      OFFSET 0 25.6574 0.127663
      CHANNELS 3 Zrotation Xrotation Yrotation
      JOINT HEad
      {
        OFFSET 0 8.73416 0.011341
        CHANNELS 3 Zrotation Xrotation Yrotation
        End Site
        {
          OFFSET -0.29 12.7742 2.51395
        }
      }
      JOINT LeftShoulder1
      {
        OFFSET 8.99 -0.362252 -0.22
        CHANNELS 3 Zrotation Xrotation Yrotation
        JOINT LeftArm
        {
          OFFSET 10.2827 -0.00337999 0.322123
          CHANNELS 3 Zrotation Xrotation Yrotation
          JOINT LeftForeArm
          {
            OFFSET 26.2597 0.099144 -1.42434
            CHANNELS 3 Zrotation Xrotation Yrotation
            JOINT LeftHand
            {
              OFFSET 22.0902 0.085362 1.02216
              CHANNELS 3 Zrotation Xrotation Yrotation
              End Site
              {
                OFFSET 13.419 -0.6 1.50291
              }
            }
          }
        }
      }
      JOINT RightShoulder
      {
        OFFSET -8.99 -0.362252 -0.22
        CHANNELS 3 Zrotation Xrotation Yrotation
        JOINT RightArm
        {
          OFFSET -10.2827 -0.00338 0.322123
          CHANNELS 3 Zrotation Xrotation Yrotation
          JOINT RightForeArm
          {
            OFFSET -26.364 0.099144 -1.42434
            CHANNELS 3 Zrotation Xrotation Yrotation
            JOINT RightHand
            {
              OFFSET -22.0324 0.085362 1.02216
              CHANNELS 3 Zrotation Xrotation Yrotation
              End Site
              {
                OFFSET -13.3284 -0.6 1.50291
              }
            }
          }
        }
      }
    }
  }
  JOINT LeftUpLeg
  {
    OFFSET 8.9458 -8.66707 0.101652
    CHANNELS 3 Zrotation Xrotation Yrotation
    JOINT LeftLeg
    {
      OFFSET 0 -44.4227 1.3727
      CHANNELS 3 Zrotation Xrotation Yrotation
      JOINT LeftFoot
      {
        OFFSET -0.253549 -42.0924 -1.46059
        CHANNELS 3 Zrotation Xrotation Yrotation
        JOINT LeftToes
        {
          OFFSET -0.04 -4.41509 8.4991
          CHANNELS 3 Zrotation Xrotation Yrotation
          End Site
          {
            OFFSET 0.08 -0.047448 9.77979
          }
        }
      }
    }
  }
}
MOTION
Frames:	10
Frame Time:	0.0333333
-201.492 104.206 -43.8229 0.669243 -1.12968 87.1114 1.3822 2.30469 -0.80056 -1.21688 7.93242 -11.3103 -2.16628 -4.50501 -0.0940863 0.0462048 0.000530889 0.662642 -3.1671 -2.06211 -1.68357 2.04398 10.4122 -2.17927 -1.39634 3.91821 -0.157133 -33.0209 -4.4788 14.9357 -81.4084 -43.9613 -40.456 -172.837 63.4666 176.746 10.6691 8.75773 -7.97907 30.9048 -1.41209 -7.90965 49.9245 -15.183 20.0543 7.91181 65.1114 8.23412 -1.47208 9.8599 0.735375 -0.864686 0.0712009 1.63333 1.5093 9.32915 13.3633 3.47856 -6.39962 -0.0076537 -1.36932e-009 8.7523e-006 -1.47815e-008 
-201.519 104.219 -43.8782 0.653119 -1.17488 87.0552 1.41244 2.17327 -0.76442 -1.25272 8.18367 -11.2534 -2.02697 -4.5214 -0.0940884 0.0462048 0.000530889 0.662642 -3.17227 -2.04593 -1.67316 2.09589 10.3802 -2.17596 -1.36775 3.89281 -0.10319 -33.0916 -4.50008 14.969 -81.7373 -44.0624 -40.7918 -172.862 63.1767 177.077 9.97443 8.85117 -7.80829 30.9008 -1.37172 -7.80104 49.7343 -14.7417 19.7921 7.08807 64.5126 9.17877 -1.38729 9.86283 1.09877 -0.851555 0.0736516 1.63516 1.50742 9.26338 13.4153 3.48017 -6.36744 -0.00765322 -1.36932e-009 8.7523e-006 -1.47815e-008 
-201.579 104.214 -43.9452 0.673438 -1.21943 87.1217 1.36768 2.31027 -0.83184 -1.15791 7.85465 -11.2308 -2.06453 -4.43296 -0.0940771 0.0462048 0.000530889 0.662642 -3.26177 -1.82292 -1.64808 2.2273 10.1472 -2.1911 -1.43341 3.97085 -0.275628 -33.0263 -4.44442 14.847 -82.3828 -44.2281 -41.2123 -172.972 62.2098 177.733 11.6971 8.57395 -8.6963 30.9014 -1.39676 -7.86844 49.8496 -15.2316 19.9331 8.03714 64.9595 8.11115 -1.61597 9.84941 1.2546 -0.82222 -0.00669252 1.67516 1.47613 9.38232 13.2805 3.60909 -6.41143 -0.00765388 -1.36932e-009 8.7523e-006 -1.47815e-008 
-201.627 104.207 -44.0102 0.713601 -1.24874 87.2725 1.36556 2.27445 -0.852522 -1.14006 7.98108 -11.3923 -2.11891 -4.46856 -0.0940816 0.0462048 0.000530889 0.662642 -3.33363 -1.6031 -1.66685 2.34594 10.0292 -2.24278 -1.31262 4.1148 -0.299693 -32.9616 -4.44042 14.8556 -82.7073 -44.1442 -41.4249 -173.02 61.7527 177.97 11.7591 8.57856 -8.55425 30.9284 -1.47456 -8.07554 49.6107 -14.6693 20.0677 8.30992 64.5615 7.95547 -1.78816 9.84092 1.05488 -0.873043 -0.115344 1.59545 1.56978 9.59976 13.2058 3.63744 -6.47643 -0.00765486 -1.36932e-009 8.7523e-006 -1.47815e-008 
-201.643 104.197 -44.0593 0.767998 -1.31283 87.3791 1.42485 2.29428 -0.794493 -1.16759 8.05581 -11.5306 -2.02469 -4.48619 -0.0941729 0.0462048 0.000530889 0.662642 -3.34227 -1.52142 -1.73996 2.42595 10.0649 -2.34758 -1.2038 4.2607 -0.33611 -33.026 -4.47247 14.9183 -82.7433 -44.075 -41.4865 -172.903 62.5275 177.731 11.2314 8.64368 -8.52736 30.7975 -1.4374 -7.99091 50.0833 -15.4161 20.2287 9.0402 65.5526 7.02545 -1.89165 9.83579 0.971005 -0.81295 -0.112037 1.65099 1.54547 9.6792 13.0727 3.68008 -6.5359 -0.00765577 -1.36932e-009 8.7523e-006 -1.47815e-008 
-201.665 104.199 -44.1096 0.764928 -1.31819 87.281 1.36499 2.21796 -0.841279 -1.13502 8.14437 -11.3722 -2.01185 -4.47819 -0.0951989 0.0462048 0.000530889 0.662642 -3.16085 -1.47384 -1.67973 2.19083 9.94698 -2.23183 -1.1049 4.53248 -0.272143 -33.017 -4.47973 14.9393 -82.6891 -43.9568 -41.5115 -172.843 62.9508 177.54 10.3599 8.78777 -8.08141 30.7713 -1.41237 -7.92622 50.3894 -15.8417 20.164 9.03287 65.926 6.92634 -1.85556 9.8358 1.23265 -0.796513 -0.0842413 1.72767 1.44835 9.59844 13.1266 3.73202 -6.51572 -0.00765546 -1.36932e-009 8.7523e-006 -1.47815e-008 
-201.721 104.189 -44.1696 0.658094 -1.22631 87.1492 1.21831 1.87859 -0.90347 -1.13023 8.49599 -11.1919 -2.05986 -4.60421 -0.0976834 0.0462048 0.000530889 0.662642 -3.04772 -1.34957 -1.57498 1.99863 9.68088 -2.07246 -1.13262 4.65476 -0.0492602 -33.0747 -4.51542 15.0128 -82.7155 -43.8945 -41.6589 -172.88 62.7434 177.596 10.5175 8.75319 -8.26829 30.8126 -1.43172 -7.97373 50.3678 -15.6251 20.1003 8.87465 65.62 7.13634 -1.64794 9.84822 1.13005 -0.959507 -0.255934 1.60167 1.48448 9.64489 13.3695 3.73758 -6.49862 -0.0076552 -1.36932e-009 8.7523e-006 -1.47815e-008 
-201.701 104.182 -44.158 0.676057 -1.20264 87.263 1.20997 1.86456 -0.925278 -1.13284 8.62264 -11.2891 -1.97889 -4.71708 -0.100911 0.0462048 0.000530889 0.662642 -3.11756 -1.36032 -1.57851 2.07435 9.73536 -2.09091 -1.2557 4.64542 -0.116837 -33.1631 -4.58319 15.1584 -82.641 -43.7091 -41.7403 -172.836 63.0884 177.385 10.0492 8.83349 -7.96356 30.8085 -1.43468 -7.98225 50.4053 -15.5421 20.0803 8.75532 65.7498 7.26843 -1.30402 9.8672 1.24147 -0.931169 -0.215807 1.64886 1.4009 9.61391 13.1985 3.7648 -6.51566 -0.00765546 -1.36932e-009 8.7523e-006 -1.47815e-008 
-201.695 104.166 -44.1448 0.630689 -1.14364 87.1892 1.12456 1.67504 -0.984712 -1.09437 8.89911 -11.1518 -1.96342 -4.85326 -0.104878 0.0462048 0.000530889 0.662642 -3.13942 -1.39174 -1.52648 2.03304 9.7474 -2.02721 -1.33894 4.65553 0.0118477 -33.1592 -4.57039 15.1269 -82.7086 -43.7251 -41.8042 -172.867 62.8772 177.491 10.3195 8.79283 -8.0596 30.8032 -1.4143 -7.92759 50.3998 -15.3406 19.9722 8.66695 65.3991 7.40315 -1.57541 9.85087 1.45945 -0.996808 -0.291321 1.60503 1.41267 9.69446 13.2948 3.76111 -6.5581 -0.00765611 -1.36932e-009 8.7523e-006 -1.47815e-008 
-201.669 104.154 -44.1076 0.555542 -1.06651 87.1955 1.09033 1.5075 -0.964034 -1.14621 9.11377 -11.1774 -1.91653 -5.0056 -0.109481 0.0462048 0.000530889 0.662642 -3.25275 -1.55834 -1.47851 2.14893 9.79285 -1.99652 -1.534 4.8025 -0.0755924 -33.0253 -4.44046 14.8371 -82.7406 -43.8745 -41.5623 -172.865 62.8544 177.535 10.8991 8.69095 -8.45885 30.7785 -1.36456 -7.7958 50.401 -15.3232 19.6873 8.36305 65.0832 7.72655 -1.8521 9.83574 1.2456 -1.12741 -0.354306 1.44209 1.53883 9.68388 13.4811 3.61052 -6.56333 -0.00765619 -1.36932e-009 8.7523e-006 -1.47815e-008 
